<?xml version="1.0" encoding="UTF-8" standalone="no"?>
<svg
   sodipodi:docname="logo_white.svg"
   inkscape:version="1.2.1 (9c6d41e410, 2022-07-14)"
   id="svg999"
   version="1.1"
   viewBox="0 0 16 16"
   height="16mm"
   width="16mm"
   inkscape:export-filename="..\..\..\..\..\..\..\!Projects\61. Game of Life\logo.png"
   inkscape:export-xdpi="300"
   inkscape:export-ydpi="300"
   xmlns:inkscape="http://www.inkscape.org/namespaces/inkscape"
   xmlns:sodipodi="http://sodipodi.sourceforge.net/DTD/sodipodi-0.dtd"
   xmlns="http://www.w3.org/2000/svg"
   xmlns:svg="http://www.w3.org/2000/svg"
   xmlns:rdf="http://www.w3.org/1999/02/22-rdf-syntax-ns#"
   xmlns:cc="http://creativecommons.org/ns#"
   xmlns:dc="http://purl.org/dc/elements/1.1/">
  <defs
     id="defs993" />
  <sodipodi:namedview
     inkscape:window-maximized="1"
     inkscape:window-y="-8"
     inkscape:window-x="1912"
     inkscape:window-height="1017"
     inkscape:window-width="1920"
     inkscape:snap-page="true"
     inkscape:snap-center="true"
     inkscape:snap-object-midpoints="true"
     inkscape:snap-grids="false"
     inkscape:bbox-nodes="true"
     inkscape:snap-bbox="true"
     showgrid="true"
     inkscape:document-rotation="0"
     inkscape:current-layer="layer1"
     inkscape:document-units="mm"
     inkscape:cy="29.01313"
     inkscape:cx="21.123594"
     inkscape:zoom="11.787767"
     inkscape:pageshadow="2"
     inkscape:pageopacity="0"
     borderopacity="1.0"
     bordercolor="#666666"
     pagecolor="#000000"
     id="base"
     inkscape:showpageshadow="2"
     inkscape:pagecheckerboard="0"
     inkscape:deskcolor="#ffffff">
    <inkscape:grid
       id="grid1576"
       type="xygrid"
       originx="0"
       originy="0"
       units="mm"
       spacingx="0.50000001"
       spacingy="0.50000001" />
  </sodipodi:namedview>
  <metadata
     id="metadata996">
    <rdf:RDF>
      <cc:Work
         rdf:about="">
        <dc:format>image/svg+xml</dc:format>
        <dc:type
           rdf:resource="http://purl.org/dc/dcmitype/StillImage" />
      </cc:Work>
    </rdf:RDF>
  </metadata>
  <g
     id="layer1"
     inkscape:groupmode="layer"
     inkscape:label="Layer 1">
    <path
       id="path6171-6"
       style="fill:#ffffff;fill-opacity:1;stroke:none;stroke-width:15;stroke-linecap:round;stroke-linejoin:round;stroke-opacity:1"
       d="M 7.9999995,0.24995656 A 7.75,7.75 0 0 0 0.25008551,7.9998706 7.75,7.75 0 0 0 7.9999995,15.750044 7.75,7.75 0 0 0 15.749915,7.9998706 7.75,7.75 0 0 0 7.9999995,0.24995656 Z m 0,1.49990844 A 6.25,6.25 0 0 1 10.249992,2.1692193 V 6.2498487 H 5.7500075 V 2.1746453 A 6.25,6.25 0 0 1 7.9999995,1.749865 Z m 3.7501595,1.2510864 a 6.25,6.25 0 0 1 2.249733,3.2488974 h -2.249733 z m -7.5000595,0.00336 v 3.2455374 h -2.244565 a 6.25,6.25 0 0 1 2.244565,-3.2455384 z m -2.489771,4.7457042 h 5.489588 v 6.4492194 a 6.25,6.25 0 0 1 -5.499923,-6.1993644 6.25,6.25 0 0 1 0.01034,-0.249855 z m 6.989755,0 h 5.4942385 a 6.25,6.25 0 0 1 0.0057,0.249855 6.25,6.25 0 0 1 -5.4999235,6.2042734 z" />
  </g>
</svg>
